<?xml version="1.0" encoding="UTF-8" standalone="no"?>
<!DOCTYPE svg PUBLIC "-//W3C//DTD SVG 1.1//EN"
 "http://www.w3.org/Graphics/SVG/1.1/DTD/svg11.dtd">
<!-- Generated by graphviz version 5.0.1 (20220820.1526)
 -->
<!-- Pages: 1 -->
<svg width="328pt" height="504pt"
 viewBox="0.00 0.00 328.34 504.00" xmlns="http://www.w3.org/2000/svg" xmlns:xlink="http://www.w3.org/1999/xlink">
<g id="graph0" class="graph" transform="scale(0.619505 0.619505) rotate(0) translate(4 809.55)">
<polygon fill="white" stroke="none" points="-4,4 -4,-809.55 526,-809.55 526,4 -4,4"/>
<!-- a -->
<g id="node1" class="node">
<title>a</title>
<ellipse fill="none" stroke="red" cx="181" cy="-768.08" rx="42.35" ry="37.45"/>
<text text-anchor="middle" x="181" y="-779.38" font-family="Times,serif" font-size="14.00">a</text>
<text text-anchor="middle" x="181" y="-764.38" font-family="Times,serif" font-size="14.00">parent a</text>
<text text-anchor="middle" x="181" y="-749.38" font-family="Times,serif" font-size="14.00">2</text>
</g>
<!-- b -->
<g id="node2" class="node">
<title>b</title>
<ellipse fill="none" stroke="red" cx="254" cy="-642.12" rx="43.27" ry="37.45"/>
<text text-anchor="middle" x="254" y="-653.42" font-family="Times,serif" font-size="14.00">b</text>
<text text-anchor="middle" x="254" y="-638.42" font-family="Times,serif" font-size="14.00">parent b</text>
<text text-anchor="middle" x="254" y="-623.42" font-family="Times,serif" font-size="14.00">2</text>
</g>
<!-- c -->
<g id="node3" class="node">
<title>c</title>
<ellipse fill="none" stroke="black" cx="246" cy="-26.87" rx="65.11" ry="26.74"/>
<text text-anchor="middle" x="246" y="-30.67" font-family="Times,serif" font-size="14.00">c</text>
<text text-anchor="middle" x="246" y="-15.67" font-family="Times,serif" font-size="14.00">independent c</text>
</g>
<!-- aa -->
<g id="node4" class="node">
<title>aa</title>
<ellipse fill="none" stroke="red" cx="362" cy="-642.12" rx="36.12" ry="37.45"/>
<text text-anchor="middle" x="362" y="-653.42" font-family="Times,serif" font-size="14.00">aa</text>
<text text-anchor="middle" x="362" y="-638.42" font-family="Times,serif" font-size="14.00">sub aa</text>
<text text-anchor="middle" x="362" y="-623.42" font-family="Times,serif" font-size="14.00">2</text>
</g>
<!-- aa&#45;&gt;a -->
<g id="edge1" class="edge">
<title>aa&#45;&gt;a</title>
<path fill="none" stroke="green" d="M332.11,-663.59C302.25,-684.04 256.09,-715.65 222.64,-738.56"/>
<polygon fill="green" stroke="green" points="220.27,-735.94 214,-744.48 224.23,-741.71 220.27,-735.94"/>
<text text-anchor="middle" x="319" y="-701.4" font-family="Times,serif" font-size="14.00">subsample&#45;of</text>
</g>
<!-- aa2 -->
<g id="node5" class="node">
<title>aa2</title>
<ellipse fill="none" stroke="red" cx="367" cy="-456.22" rx="41.02" ry="37.45"/>
<text text-anchor="middle" x="367" y="-467.52" font-family="Times,serif" font-size="14.00">aa2</text>
<text text-anchor="middle" x="367" y="-452.52" font-family="Times,serif" font-size="14.00">sub aa2</text>
<text text-anchor="middle" x="367" y="-437.52" font-family="Times,serif" font-size="14.00">1</text>
</g>
<!-- aa2&#45;&gt;aa -->
<g id="edge2" class="edge">
<title>aa2&#45;&gt;aa</title>
<path fill="none" stroke="green" d="M363.98,-493.83C363.58,-499.79 363.23,-505.91 363,-511.69 361.89,-539.1 361.61,-569.8 361.62,-594.41"/>
<polygon fill="green" stroke="green" points="358.12,-594.57 361.64,-604.57 365.12,-594.56 358.12,-594.57"/>
<text text-anchor="middle" x="400" y="-545.47" font-family="Times,serif" font-size="14.00">subsample&#45;of</text>
</g>
<!-- ab -->
<g id="node6" class="node">
<title>ab</title>
<ellipse fill="none" stroke="red" cx="101" cy="-549.17" rx="36.54" ry="37.45"/>
<text text-anchor="middle" x="101" y="-560.47" font-family="Times,serif" font-size="14.00">ab</text>
<text text-anchor="middle" x="101" y="-545.47" font-family="Times,serif" font-size="14.00">sub ab</text>
<text text-anchor="middle" x="101" y="-530.47" font-family="Times,serif" font-size="14.00">1</text>
</g>
<!-- ab&#45;&gt;a -->
<g id="edge3" class="edge">
<title>ab&#45;&gt;a</title>
<path fill="none" stroke="green" d="M105.23,-586.55C109.1,-613.02 116.1,-649.38 128,-679.6 134.47,-696.02 143.9,-712.87 153.02,-727.35"/>
<polygon fill="green" stroke="green" points="150.26,-729.53 158.63,-736.03 156.14,-725.73 150.26,-729.53"/>
<text text-anchor="middle" x="165" y="-638.42" font-family="Times,serif" font-size="14.00">subsample&#45;of</text>
</g>
<!-- aaa -->
<g id="node7" class="node">
<title>aaa</title>
<polygon fill="none" stroke="red" points="373,-367.74 291,-314.74 373,-261.74 455,-314.74 373,-367.74"/>
<text text-anchor="middle" x="373" y="-326.04" font-family="Times,serif" font-size="14.00">aaa</text>
<text text-anchor="middle" x="373" y="-311.04" font-family="Times,serif" font-size="14.00">analysis aaa</text>
<text text-anchor="middle" x="373" y="-296.04" font-family="Times,serif" font-size="14.00">1</text>
</g>
<!-- aaa&#45;&gt;aa -->
<g id="edge4" class="edge">
<title>aaa&#45;&gt;aa</title>
<path fill="none" stroke="blue" d="M406.87,-346.11C417.2,-357.43 427.32,-371.12 433,-385.74 465.31,-469 477.55,-507.07 437,-586.65 429.69,-601 416.63,-612.45 403.44,-621.08"/>
<polygon fill="blue" stroke="blue" points="401.52,-618.15 394.81,-626.35 405.17,-624.13 401.52,-618.15"/>
<text text-anchor="middle" x="492" y="-452.52" font-family="Times,serif" font-size="14.00">analysis&#45;of</text>
</g>
<!-- aaa&#45;&gt;aa2 -->
<g id="edge5" class="edge">
<title>aaa&#45;&gt;aa2</title>
<path fill="none" stroke="blue" d="M370.82,-366.49C370.22,-380.27 369.59,-395.12 369,-408.65"/>
<polygon fill="blue" stroke="blue" points="365.5,-408.57 368.57,-418.71 372.5,-408.87 365.5,-408.57"/>
<text text-anchor="middle" x="399" y="-389.54" font-family="Times,serif" font-size="14.00">analysis&#45;of</text>
</g>
<!-- aab -->
<g id="node8" class="node">
<title>aab</title>
<ellipse fill="none" stroke="red" cx="48" cy="-314.74" rx="41.02" ry="37.45"/>
<text text-anchor="middle" x="48" y="-326.04" font-family="Times,serif" font-size="14.00">aab</text>
<text text-anchor="middle" x="48" y="-311.04" font-family="Times,serif" font-size="14.00">sub aab</text>
<text text-anchor="middle" x="48" y="-296.04" font-family="Times,serif" font-size="14.00">1</text>
</g>
<!-- aab&#45;&gt;ab -->
<g id="edge6" class="edge">
<title>aab&#45;&gt;ab</title>
<path fill="none" stroke="green" d="M56.17,-351.55C65.41,-392.07 80.48,-458.17 90.56,-502.41"/>
<polygon fill="green" stroke="green" points="87.19,-503.35 92.83,-512.32 94.01,-501.79 87.19,-503.35"/>
<text text-anchor="middle" x="104" y="-389.54" font-family="Times,serif" font-size="14.00">subsample&#45;of</text>
</g>
<!-- ba -->
<g id="node9" class="node">
<title>ba</title>
<ellipse fill="none" stroke="red" cx="171" cy="-456.22" rx="36.54" ry="37.45"/>
<text text-anchor="middle" x="171" y="-467.52" font-family="Times,serif" font-size="14.00">ba</text>
<text text-anchor="middle" x="171" y="-452.52" font-family="Times,serif" font-size="14.00">sub ba</text>
<text text-anchor="middle" x="171" y="-437.52" font-family="Times,serif" font-size="14.00">1</text>
</g>
<!-- ba&#45;&gt;b -->
<g id="edge7" class="edge">
<title>ba&#45;&gt;b</title>
<path fill="none" stroke="green" d="M165.32,-493.26C162.81,-520.57 163.34,-558.13 179,-586.65 185.79,-599.02 196.74,-609.31 208.19,-617.49"/>
<polygon fill="green" stroke="green" points="206.3,-620.44 216.56,-623.07 210.18,-614.62 206.3,-620.44"/>
<text text-anchor="middle" x="216" y="-545.47" font-family="Times,serif" font-size="14.00">subsample&#45;of</text>
</g>
<!-- baa -->
<g id="node10" class="node">
<title>baa</title>
<polygon fill="none" stroke="red" points="190,-367.74 107,-314.74 190,-261.74 273,-314.74 190,-367.74"/>
<text text-anchor="middle" x="190" y="-326.04" font-family="Times,serif" font-size="14.00">baa</text>
<text text-anchor="middle" x="190" y="-311.04" font-family="Times,serif" font-size="14.00">analysis baa</text>
<text text-anchor="middle" x="190" y="-296.04" font-family="Times,serif" font-size="14.00">1</text>
</g>
<!-- baa&#45;&gt;ba -->
<g id="edge8" class="edge">
<title>baa&#45;&gt;ba</title>
<path fill="none" stroke="blue" d="M183.46,-363.74C181.47,-378.32 179.3,-394.32 177.32,-408.8"/>
<polygon fill="blue" stroke="blue" points="173.81,-408.65 175.93,-419.03 180.75,-409.59 173.81,-408.65"/>
<text text-anchor="middle" x="210" y="-389.54" font-family="Times,serif" font-size="14.00">analysis&#45;of</text>
</g>
<!-- aaba -->
<g id="node11" class="node">
<title>aaba</title>
<polygon fill="none" stroke="red" points="64,-210.74 0,-157.74 64,-104.74 128,-157.74 64,-210.74"/>
<text text-anchor="middle" x="64" y="-169.04" font-family="Times,serif" font-size="14.00">aaba</text>
<text text-anchor="middle" x="64" y="-154.04" font-family="Times,serif" font-size="14.00">sub aaba</text>
<text text-anchor="middle" x="64" y="-139.04" font-family="Times,serif" font-size="14.00">1</text>
</g>
<!-- aaba&#45;&gt;aab -->
<g id="edge9" class="edge">
<title>aaba&#45;&gt;aab</title>
<path fill="none" stroke="blue" d="M59.03,-206.93C57.03,-226.22 54.75,-248.34 52.78,-267.43"/>
<polygon fill="blue" stroke="blue" points="49.3,-267.09 51.75,-277.4 56.26,-267.81 49.3,-267.09"/>
<text text-anchor="middle" x="87" y="-232.54" font-family="Times,serif" font-size="14.00">analysis&#45;of</text>
</g>
<!-- bb -->
<g id="node12" class="node">
<title>bb</title>
<ellipse fill="none" stroke="black" cx="265" cy="-456.22" rx="37.45" ry="26.74"/>
<text text-anchor="middle" x="265" y="-460.02" font-family="Times,serif" font-size="14.00">bb</text>
<text text-anchor="middle" x="265" y="-445.02" font-family="Times,serif" font-size="14.00">sub bb</text>
</g>
<!-- bb&#45;&gt;b -->
<g id="edge10" class="edge">
<title>bb&#45;&gt;b</title>
<path fill="none" stroke="green" d="M263.45,-483.18C261.72,-512.01 258.9,-559.15 256.79,-594.44"/>
<polygon fill="green" stroke="green" points="253.29,-594.32 256.19,-604.51 260.28,-594.74 253.29,-594.32"/>
<text text-anchor="middle" x="298" y="-545.47" font-family="Times,serif" font-size="14.00">subsample&#45;of</text>
</g>
<!-- ccc -->
<g id="node13" class="node">
<title>ccc</title>
<polygon fill="none" stroke="red" points="222.5,-184.24 151.5,-184.24 151.5,-131.24 228.5,-131.24 228.5,-178.24 222.5,-184.24"/>
<polyline fill="none" stroke="red" points="222.5,-184.24 222.5,-178.24"/>
<polyline fill="none" stroke="red" points="228.5,-178.24 222.5,-178.24"/>
<text text-anchor="middle" x="190" y="-169.04" font-family="Times,serif" font-size="14.00">ccc</text>
<text text-anchor="middle" x="190" y="-154.04" font-family="Times,serif" font-size="14.00">publication</text>
<text text-anchor="middle" x="190" y="-139.04" font-family="Times,serif" font-size="14.00">1</text>
</g>
<!-- ccc&#45;&gt;aaa -->
<g id="edge11" class="edge">
<title>ccc&#45;&gt;aaa</title>
<path fill="none" stroke="black" d="M220.22,-184.34C250.2,-209.73 296.43,-248.88 330.18,-277.47"/>
<polygon fill="black" stroke="black" points="328.15,-280.34 338.04,-284.13 332.68,-275 328.15,-280.34"/>
<text text-anchor="middle" x="314" y="-232.54" font-family="Times,serif" font-size="14.00">references</text>
</g>
<!-- ccc&#45;&gt;baa -->
<g id="edge12" class="edge">
<title>ccc&#45;&gt;baa</title>
<path fill="none" stroke="black" d="M190,-184.34C190,-202.61 190,-228.01 190,-251.48"/>
<polygon fill="black" stroke="black" points="186.5,-251.74 190,-261.74 193.5,-251.74 186.5,-251.74"/>
<text text-anchor="middle" x="218" y="-232.54" font-family="Times,serif" font-size="14.00">references</text>
</g>
<!-- ddd -->
<g id="node14" class="node">
<title>ddd</title>
<polygon fill="none" stroke="black" points="156.5,-45.87 85.5,-45.87 85.5,-7.87 162.5,-7.87 162.5,-39.87 156.5,-45.87"/>
<polyline fill="none" stroke="black" points="156.5,-45.87 156.5,-39.87"/>
<polyline fill="none" stroke="black" points="162.5,-39.87 156.5,-39.87"/>
<text text-anchor="middle" x="124" y="-30.67" font-family="Times,serif" font-size="14.00">ddd</text>
<text text-anchor="middle" x="124" y="-15.67" font-family="Times,serif" font-size="14.00">publication</text>
</g>
<!-- ddd&#45;&gt;aaba -->
<g id="edge14" class="edge">
<title>ddd&#45;&gt;aaba</title>
<path fill="none" stroke="black" d="M111.12,-46.15C106.03,-53.84 100.37,-63.01 96,-71.74 90.54,-82.65 85.46,-94.72 81.03,-106.26"/>
<polygon fill="black" stroke="black" points="77.69,-105.2 77.46,-115.79 84.24,-107.66 77.69,-105.2"/>
<text text-anchor="middle" x="124" y="-75.54" font-family="Times,serif" font-size="14.00">references</text>
</g>
<!-- ddd&#45;&gt;ccc -->
<g id="edge13" class="edge">
<title>ddd&#45;&gt;ccc</title>
<path fill="none" stroke="black" d="M136.61,-46.29C141.66,-54 147.37,-63.15 152,-71.74 160.64,-87.77 169.03,-106.14 175.72,-121.7"/>
<polygon fill="black" stroke="black" points="172.53,-123.14 179.65,-130.98 178.97,-120.4 172.53,-123.14"/>
<text text-anchor="middle" x="187" y="-75.54" font-family="Times,serif" font-size="14.00">references</text>
</g>
</g>
</svg>
