<?xml version="1.0" encoding="UTF-8" standalone="no"?>
<!DOCTYPE svg PUBLIC "-//W3C//DTD SVG 1.1//EN"
 "http://www.w3.org/Graphics/SVG/1.1/DTD/svg11.dtd">
<!-- Generated by graphviz version 5.0.1 (20220820.1526)
 -->
<!-- Pages: 1 -->
<svg width="397pt" height="504pt"
 viewBox="0.00 0.00 397.20 504.00" xmlns="http://www.w3.org/2000/svg" xmlns:xlink="http://www.w3.org/1999/xlink">
<g id="graph0" class="graph" transform="scale(0.753701 0.753701) rotate(0) translate(4 664.7)">
<polygon fill="white" stroke="none" points="-4,4 -4,-664.7 523,-664.7 523,4 -4,4"/>
<!-- a -->
<g id="node1" class="node">
<title>a</title>
<ellipse fill="none" stroke="red" cx="181" cy="-633.83" rx="42.35" ry="26.74"/>
<text text-anchor="middle" x="181" y="-637.63" font-family="Times,serif" font-size="14.00">a</text>
<text text-anchor="middle" x="181" y="-622.63" font-family="Times,serif" font-size="14.00">parent a</text>
</g>
<!-- b -->
<g id="node2" class="node">
<title>b</title>
<ellipse fill="none" stroke="red" cx="254" cy="-529.09" rx="43.27" ry="26.74"/>
<text text-anchor="middle" x="254" y="-532.89" font-family="Times,serif" font-size="14.00">b</text>
<text text-anchor="middle" x="254" y="-517.89" font-family="Times,serif" font-size="14.00">parent b</text>
</g>
<!-- c -->
<g id="node3" class="node">
<title>c</title>
<ellipse fill="none" stroke="black" cx="246" cy="-26.87" rx="65.11" ry="26.74"/>
<text text-anchor="middle" x="246" y="-30.67" font-family="Times,serif" font-size="14.00">c</text>
<text text-anchor="middle" x="246" y="-15.67" font-family="Times,serif" font-size="14.00">independent c</text>
</g>
<!-- aa -->
<g id="node4" class="node">
<title>aa</title>
<ellipse fill="none" stroke="red" cx="362" cy="-529.09" rx="36.12" ry="26.74"/>
<text text-anchor="middle" x="362" y="-532.89" font-family="Times,serif" font-size="14.00">aa</text>
<text text-anchor="middle" x="362" y="-517.89" font-family="Times,serif" font-size="14.00">sub aa</text>
</g>
<!-- aa&#45;&gt;a -->
<g id="edge1" class="edge">
<title>aa&#45;&gt;a</title>
<path fill="none" stroke="green" d="M333.72,-546.14C303.33,-563.4 254.79,-590.95 220.6,-610.35"/>
<polygon fill="green" stroke="green" points="218.78,-607.36 211.81,-615.34 222.23,-613.45 218.78,-607.36"/>
<text text-anchor="middle" x="319" y="-577.76" font-family="Times,serif" font-size="14.00">subsample&#45;of</text>
</g>
<!-- aa2 -->
<g id="node5" class="node">
<title>aa2</title>
<ellipse fill="none" stroke="red" cx="367" cy="-385.61" rx="41.02" ry="26.74"/>
<text text-anchor="middle" x="367" y="-389.41" font-family="Times,serif" font-size="14.00">aa2</text>
<text text-anchor="middle" x="367" y="-374.41" font-family="Times,serif" font-size="14.00">sub aa2</text>
</g>
<!-- aa2&#45;&gt;aa -->
<g id="edge2" class="edge">
<title>aa2&#45;&gt;aa</title>
<path fill="none" stroke="green" d="M364.28,-412.57C363.77,-418.45 363.29,-424.68 363,-430.48 361.97,-450.81 361.69,-473.54 361.68,-491.96"/>
<polygon fill="green" stroke="green" points="358.18,-491.98 361.7,-501.97 365.18,-491.97 358.18,-491.98"/>
<text text-anchor="middle" x="400" y="-453.65" font-family="Times,serif" font-size="14.00">subsample&#45;of</text>
</g>
<!-- ab -->
<g id="node6" class="node">
<title>ab</title>
<ellipse fill="none" stroke="black" cx="101" cy="-457.35" rx="36.54" ry="26.74"/>
<text text-anchor="middle" x="101" y="-461.15" font-family="Times,serif" font-size="14.00">ab</text>
<text text-anchor="middle" x="101" y="-446.15" font-family="Times,serif" font-size="14.00">sub ab</text>
</g>
<!-- ab&#45;&gt;a -->
<g id="edge3" class="edge">
<title>ab&#45;&gt;a</title>
<path fill="none" stroke="green" d="M105.66,-484.04C109.89,-504.22 117.14,-532.7 128,-555.96 135.37,-571.74 145.89,-587.82 155.62,-601.17"/>
<polygon fill="green" stroke="green" points="153.07,-603.6 161.86,-609.51 158.67,-599.4 153.07,-603.6"/>
<text text-anchor="middle" x="165" y="-525.39" font-family="Times,serif" font-size="14.00">subsample&#45;of</text>
</g>
<!-- aaa -->
<g id="node7" class="node">
<title>aaa</title>
<polygon fill="none" stroke="black" points="373,-307.74 291,-269.74 373,-231.74 455,-269.74 373,-307.74"/>
<text text-anchor="middle" x="373" y="-273.54" font-family="Times,serif" font-size="14.00">aaa</text>
<text text-anchor="middle" x="373" y="-258.54" font-family="Times,serif" font-size="14.00">analysis aaa</text>
</g>
<!-- aaa&#45;&gt;aa -->
<g id="edge4" class="edge">
<title>aaa&#45;&gt;aa</title>
<path fill="none" stroke="blue" d="M406.36,-292.43C417.19,-301.35 427.96,-312.67 434,-325.74 463.55,-389.69 472.05,-423.11 437,-484.22 429.69,-496.96 417.09,-506.36 404.29,-513.11"/>
<polygon fill="blue" stroke="blue" points="402.5,-510.08 395,-517.57 405.53,-516.4 402.5,-510.08"/>
<text text-anchor="middle" x="489" y="-381.91" font-family="Times,serif" font-size="14.00">analysis&#45;of</text>
</g>
<!-- aaa&#45;&gt;aa2 -->
<g id="edge5" class="edge">
<title>aaa&#45;&gt;aa2</title>
<path fill="none" stroke="blue" d="M371.09,-307.08C370.39,-320.33 369.6,-335.3 368.9,-348.53"/>
<polygon fill="blue" stroke="blue" points="365.4,-348.53 368.37,-358.7 372.39,-348.9 365.4,-348.53"/>
<text text-anchor="middle" x="400" y="-329.54" font-family="Times,serif" font-size="14.00">analysis&#45;of</text>
</g>
<!-- aab -->
<g id="node8" class="node">
<title>aab</title>
<ellipse fill="none" stroke="black" cx="48" cy="-269.74" rx="41.02" ry="26.74"/>
<text text-anchor="middle" x="48" y="-273.54" font-family="Times,serif" font-size="14.00">aab</text>
<text text-anchor="middle" x="48" y="-258.54" font-family="Times,serif" font-size="14.00">sub aab</text>
</g>
<!-- aab&#45;&gt;ab -->
<g id="edge6" class="edge">
<title>aab&#45;&gt;ab</title>
<path fill="none" stroke="green" d="M55.37,-296.55C64.63,-328.96 80.55,-384.72 90.92,-421.06"/>
<polygon fill="green" stroke="green" points="87.58,-422.11 93.69,-430.76 94.31,-420.18 87.58,-422.11"/>
<text text-anchor="middle" x="105" y="-329.54" font-family="Times,serif" font-size="14.00">subsample&#45;of</text>
</g>
<!-- ba -->
<g id="node9" class="node">
<title>ba</title>
<ellipse fill="none" stroke="red" cx="171" cy="-385.61" rx="36.54" ry="26.74"/>
<text text-anchor="middle" x="171" y="-389.41" font-family="Times,serif" font-size="14.00">ba</text>
<text text-anchor="middle" x="171" y="-374.41" font-family="Times,serif" font-size="14.00">sub ba</text>
</g>
<!-- ba&#45;&gt;b -->
<g id="edge7" class="edge">
<title>ba&#45;&gt;b</title>
<path fill="none" stroke="green" d="M166.91,-412.7C165.02,-433.63 165.6,-462.92 179,-484.22 185.91,-495.2 196.64,-503.76 207.85,-510.27"/>
<polygon fill="green" stroke="green" points="206.4,-513.47 216.87,-515.07 209.69,-507.29 206.4,-513.47"/>
<text text-anchor="middle" x="216" y="-453.65" font-family="Times,serif" font-size="14.00">subsample&#45;of</text>
</g>
<!-- baa -->
<g id="node10" class="node">
<title>baa</title>
<polygon fill="none" stroke="black" points="190,-307.74 107,-269.74 190,-231.74 273,-269.74 190,-307.74"/>
<text text-anchor="middle" x="190" y="-273.54" font-family="Times,serif" font-size="14.00">baa</text>
<text text-anchor="middle" x="190" y="-258.54" font-family="Times,serif" font-size="14.00">analysis baa</text>
</g>
<!-- baa&#45;&gt;ba -->
<g id="edge8" class="edge">
<title>baa&#45;&gt;ba</title>
<path fill="none" stroke="blue" d="M184.25,-305.21C181.97,-318.88 179.34,-334.6 177.04,-348.43"/>
<polygon fill="blue" stroke="blue" points="173.54,-348.13 175.34,-358.57 180.44,-349.29 173.54,-348.13"/>
<text text-anchor="middle" x="211" y="-329.54" font-family="Times,serif" font-size="14.00">analysis&#45;of</text>
</g>
<!-- aaba -->
<g id="node11" class="node">
<title>aaba</title>
<polygon fill="none" stroke="black" points="64,-180.74 0,-142.74 64,-104.74 128,-142.74 64,-180.74"/>
<text text-anchor="middle" x="64" y="-146.54" font-family="Times,serif" font-size="14.00">aaba</text>
<text text-anchor="middle" x="64" y="-131.54" font-family="Times,serif" font-size="14.00">sub aaba</text>
</g>
<!-- aaba&#45;&gt;aab -->
<g id="edge9" class="edge">
<title>aaba&#45;&gt;aab</title>
<path fill="none" stroke="blue" d="M59.59,-178.23C57.43,-195.1 54.83,-215.42 52.64,-232.52"/>
<polygon fill="blue" stroke="blue" points="49.13,-232.33 51.33,-242.69 56.08,-233.22 49.13,-232.33"/>
<text text-anchor="middle" x="87" y="-202.54" font-family="Times,serif" font-size="14.00">analysis&#45;of</text>
</g>
<!-- bb -->
<g id="node12" class="node">
<title>bb</title>
<ellipse fill="none" stroke="black" cx="265" cy="-385.61" rx="37.45" ry="26.74"/>
<text text-anchor="middle" x="265" y="-389.41" font-family="Times,serif" font-size="14.00">bb</text>
<text text-anchor="middle" x="265" y="-374.41" font-family="Times,serif" font-size="14.00">sub bb</text>
</g>
<!-- bb&#45;&gt;b -->
<g id="edge10" class="edge">
<title>bb&#45;&gt;b</title>
<path fill="none" stroke="green" d="M262.98,-412.56C261.26,-434.76 258.75,-466.95 256.83,-491.72"/>
<polygon fill="green" stroke="green" points="253.33,-491.58 256.04,-501.83 260.31,-492.13 253.33,-491.58"/>
<text text-anchor="middle" x="298" y="-453.65" font-family="Times,serif" font-size="14.00">subsample&#45;of</text>
</g>
<!-- ccc -->
<g id="node13" class="node">
<title>ccc</title>
<polygon fill="none" stroke="black" points="222.5,-161.74 151.5,-161.74 151.5,-123.74 228.5,-123.74 228.5,-155.74 222.5,-161.74"/>
<polyline fill="none" stroke="black" points="222.5,-161.74 222.5,-155.74"/>
<polyline fill="none" stroke="black" points="228.5,-155.74 222.5,-155.74"/>
<text text-anchor="middle" x="190" y="-146.54" font-family="Times,serif" font-size="14.00">ccc</text>
<text text-anchor="middle" x="190" y="-131.54" font-family="Times,serif" font-size="14.00">publication</text>
</g>
<!-- ccc&#45;&gt;aaa -->
<g id="edge11" class="edge">
<title>ccc&#45;&gt;aaa</title>
<path fill="none" stroke="black" d="M216.61,-161.92C246.86,-182.58 296.6,-216.55 331.86,-240.64"/>
<polygon fill="black" stroke="black" points="330.26,-243.78 340.49,-246.53 334.2,-238 330.26,-243.78"/>
<text text-anchor="middle" x="320" y="-202.54" font-family="Times,serif" font-size="14.00">references</text>
</g>
<!-- ccc&#45;&gt;baa -->
<g id="edge12" class="edge">
<title>ccc&#45;&gt;baa</title>
<path fill="none" stroke="black" d="M190,-161.92C190,-177.5 190,-200.65 190,-221.43"/>
<polygon fill="black" stroke="black" points="186.5,-221.7 190,-231.7 193.5,-221.7 186.5,-221.7"/>
<text text-anchor="middle" x="218" y="-202.54" font-family="Times,serif" font-size="14.00">references</text>
</g>
<!-- ddd -->
<g id="node14" class="node">
<title>ddd</title>
<polygon fill="none" stroke="black" points="156.5,-45.87 85.5,-45.87 85.5,-7.87 162.5,-7.87 162.5,-39.87 156.5,-45.87"/>
<polyline fill="none" stroke="black" points="156.5,-45.87 156.5,-39.87"/>
<polyline fill="none" stroke="black" points="162.5,-39.87 156.5,-39.87"/>
<text text-anchor="middle" x="124" y="-30.67" font-family="Times,serif" font-size="14.00">ddd</text>
<text text-anchor="middle" x="124" y="-15.67" font-family="Times,serif" font-size="14.00">publication</text>
</g>
<!-- ddd&#45;&gt;aaba -->
<g id="edge14" class="edge">
<title>ddd&#45;&gt;aaba</title>
<path fill="none" stroke="black" d="M111.7,-45.88C106.59,-53.68 100.75,-63.01 96,-71.74 90.62,-81.62 85.32,-92.58 80.62,-102.84"/>
<polygon fill="black" stroke="black" points="77.41,-101.45 76.5,-112 83.79,-104.32 77.41,-101.45"/>
<text text-anchor="middle" x="124" y="-75.54" font-family="Times,serif" font-size="14.00">references</text>
</g>
<!-- ddd&#45;&gt;ccc -->
<g id="edge13" class="edge">
<title>ddd&#45;&gt;ccc</title>
<path fill="none" stroke="black" d="M136.01,-46.05C141.07,-53.87 146.95,-63.18 152,-71.74 160.25,-85.73 168.93,-101.63 175.91,-114.73"/>
<polygon fill="black" stroke="black" points="172.89,-116.5 180.66,-123.71 179.08,-113.23 172.89,-116.5"/>
<text text-anchor="middle" x="188" y="-75.54" font-family="Times,serif" font-size="14.00">references</text>
</g>
</g>
</svg>
